<svg width="328" height="222" viewBox="0 0 328 222" fill="none" xmlns="http://www.w3.org/2000/svg">
<path d="M226.302 53.8863C247.599 55.022 267.189 60.5819 284.379 72.5046C296.346 80.8046 308.406 91.7968 313.113 106C318.413 121.993 321.699 138.711 327 154.5C330.036 163.542 323.677 179.5 320.5 182C318.5 183.574 316 186.132 313.113 186.132C311 186.132 306.569 182.59 306.5 181.014C306.161 173.273 301.594 167.409 303 159.901C305.442 146.855 305.766 121.488 294.351 113.76C294.167 115.31 293.977 116.48 293.897 117.658C292.882 132.588 292.943 147.687 290.603 162.405C289.301 170.592 288.317 218.655 278 222C273 222 262.5 222 257.5 222C256.126 220.445 256.122 215.716 255.024 212.686C251.867 203.982 249.92 194.848 247.178 185.984C245.143 179.406 238.007 176.16 231.245 177.306C219.724 179.259 208.134 181.042 196.499 182.035C179.613 183.476 176.434 183.611 159.5 184.401C151.172 184.789 142.4 192.097 140.5 198.401C138.609 204.674 138.873 215.888 136.5 222C131.837 222 118 222 109.663 222C103.334 210.676 100.571 193.596 97.9182 181.014C95.7566 170.76 94.3545 160.329 91.8097 150.179C89.3072 140.197 81.9316 135.273 71.4712 135.187C56.1394 135.061 40.8038 135.292 25.4746 135.055C21.4992 134.993 17.1789 134.547 13.6402 132.921C-0.445536 126.449 -4.20433 108.319 5.77566 95.807C16.7086 82.1 27.6681 68.4056 38.9644 54.9993C48.3574 43.8519 59.8166 35.8531 74.8239 34.079C79.9143 33.4772 82.1508 29.3919 83.6838 25.367C86.1375 18.9245 87.5667 12.2512 85.0313 5.30055C84.5683 4.03136 85.1389 1.22573 85.9459 0.900738C87.4939 0.277285 89.7955 0.402453 91.361 1.12918C100.897 5.55574 104.318 14.1465 105.799 23.7226C106.327 27.1408 105.739 30.7173 105.932 34.2065C106.072 36.7445 105.741 40.3971 107.209 41.5769C112.404 45.753 116.145 52.3494 124.254 52.194C149.004 51.7195 173.758 51.2185 198.51 51.2705C207.64 51.2897 216.766 52.8215 226.302 53.8863Z" fill="#080403"/>
</svg>
