<svg width="167" height="231" viewBox="0 0 167 231" fill="none" xmlns="http://www.w3.org/2000/svg">
<path d="M30.9976 230C27.4976 221.521 31.2837 216.643 29.6561 209.732C27.4366 200.307 25.7817 190.702 24.6449 181.084C23.6987 173.079 23.5061 164.939 23.6267 156.869C23.7167 150.861 24.2726 144.735 25.651 138.904C27.3311 131.799 23.3669 125.752 23.1362 119.139C22.7673 108.554 22.5417 97.9418 22.9094 87.3639C23.1342 80.9003 24.731 74.4956 25.442 68.0348C26.2836 60.3888 27.0549 52.7219 27.442 45.0433C27.7444 39.045 24.5709 35.5411 18.4308 33.9499C16.2639 33.3885 14.1715 32.5307 11.9965 32.0121C4.37866 30.1957 0.646362 25.7184 0.5 18.1654C0.424316 14.255 2.10254 12.1459 6.16858 11.9798C12.2563 11.7314 18.3567 11.5102 24.4087 10.8704C25.853 10.7177 28.0759 9.12455 28.293 7.90165C28.8354 4.84385 29.8697 2.38224 33.11 3.25785C34.3083 3.5817 34.842 6.72941 35.4642 8.65843C37.6515 15.4386 37.3538 7.69155 39.9951 2.15257C40.438 1.22404 41.7051 0.217569 42.6483 0.16221C43.2893 0.124674 44.3756 1.58146 44.6498 2.54447C45.4408 5.32432 45.7634 8.23759 46.5574 11.0164C48.1262 16.5072 50.0754 21.894 51.5143 27.416C52.7689 32.2313 54.1355 37.1399 54.4095 42.0653C55.2261 56.7414 55.9373 71.3811 59.4974 85.7467C63.7766 103.014 75.5132 111.364 92.1733 115.152C104.787 118.021 117.49 121.322 129.399 126.251C143.727 132.183 156.354 141.109 160.087 156.14C162.761 166.907 163.22 179.369 165.5 190.245C172.356 222.948 139.174 219.662 149.016 187.5C152.319 176.703 148.389 158.175 141.475 151.443C141.045 153.551 140.578 154.84 140.547 156.14C140.039 177.928 138.879 209.408 132.675 230C130.854 230.359 119.748 230.358 117.498 230C114.033 218.688 114.161 207.44 111.621 196.396C110.148 189.991 109.902 182.934 102.056 181.07C98.3077 180.179 94.1467 180.775 90.1962 181.043C82.3678 181.575 74.526 182.113 66.7477 183.104C61.9232 183.719 56.9759 185.331 54.9319 190.245C48.6969 205.232 56.8796 218.487 52.9976 230C46.4976 230 43.9976 230 30.9976 230Z" fill="#080404"/>
</svg>
