<svg width="321" height="230" viewBox="0 0 321 230" fill="none" xmlns="http://www.w3.org/2000/svg">
<path d="M92.0689 12.179C93.6567 13.1089 94.8674 13.9098 96.0967 14.723C106.953 2.21863 126.54 -1.11913 141.834 7.67701C144.425 9.16718 146.335 9.10474 149.244 7.16974C158.074 1.29694 168.03 -0.849252 178.367 2.50464C183.263 4.09321 187.683 7.10404 192.44 9.19477C193.692 9.74485 195.725 9.83103 196.841 9.17771C213.72 -0.696756 228.527 1.68601 242.223 12.3792C245.251 14.7441 247.345 18.3072 250.084 21.5755C261.553 18.6159 273.093 19.1373 283.389 26.4279C293.121 33.3183 299.145 42.7108 298.459 54.9908C298.097 61.4732 299.775 65.3829 305.653 68.8061C324.048 79.5201 326.233 111.505 308.838 126.116C308.046 126.781 308.148 129.174 308.575 130.528C314.339 148.827 309.843 167.041 292.617 176.478C289.325 178.282 285.676 179.434 282.522 180.75C279.2 191.267 275.927 201.983 272.396 212.613C271.141 216.391 268.765 219.836 267.793 223.66C266.769 227.693 268.734 228.664 265.295 229.074C260.795 229.074 252.795 229.049 249.295 229.074C246.68 223.635 247.291 213.036 244.937 206.989C234.606 209.357 224.487 208.024 215.027 202.391C200.103 218.242 175.666 217.942 159.903 202.079C151.412 207.045 152.962 206.24 141.295 202.079C140.206 204.723 136.221 228.8 127.378 229.074C123.249 229.203 103.795 229.074 98.7948 229.074C95.2985 218.438 96.2059 202.402 92.5935 191.803C92.03 190.15 91.6281 188.38 91.5235 186.642C91.0836 179.336 84.95 177.205 80.0882 174.024C72.363 168.969 67.3494 162.017 65.6742 153.021C64.5348 146.901 59.9452 146.409 55.5245 146.148C48.5489 145.736 41.5299 146.123 34.5317 146.015C17.7657 145.757 4.4885 134.563 1.50004 117.719C-0.907614 104.149 2.85386 92.6844 12.7166 83.7645C20.7201 76.5261 30.2479 73.7882 36.2948 65.4164C36.5685 65.0374 30.2948 52.9164 37.2948 50.9164C46.2115 45.0515 40.7909 41.4186 43.9021 32.409C47.7402 21.2946 56.5921 14.1438 68.1431 11.0884C76.0171 9.00559 83.9275 9.62321 92.0689 12.179Z" fill="#080403"/>
</svg>
