<svg width="325" height="210" viewBox="0 0 325 210" fill="none" xmlns="http://www.w3.org/2000/svg">
<path d="M0 63.1846C10.2103 55.4045 20.0543 47.4768 30.7822 41.0171C36.3133 37.6865 38.0509 33.5184 38.9811 27.9966C40.7974 17.2145 47.9511 10.3235 57.222 6.23801C78.8772 -3.30502 100.891 -1.11965 122.101 7.53C141.819 15.571 157.074 29.344 165.542 49.2241C167.943 54.8615 170.651 55.9461 176.152 55.8568C196.979 55.5192 217.816 55.7525 238.649 55.7097C250.953 55.6844 263.131 57.1291 274.464 61.8308C290.831 68.6212 303.721 79.8392 311.928 95.7586C318.9 109.281 325.033 128.509 324.5 143.723C324.203 152.212 324.335 156.503 324.5 165C324.619 171.091 324.764 176.439 324.5 182.5C324.184 189.74 320.465 197.292 315.22 202.984C314.2 204.091 312.326 205.546 311.316 205.248C309.968 204.849 308.142 202.896 308.141 201.609C305.145 193 298.246 181.132 303.878 171C308.651 162.414 312.525 152.759 311.316 143.723C310.531 137.857 311.305 132.141 309.5 126.5C308.798 124.307 306.88 112.806 303.024 113.6C302.02 117.544 300.934 121.469 300.027 125.435C296.66 140.157 293.788 155.011 289.868 169.583C287.223 179.413 284.082 200.664 280 210C272.5 210 269 210 257 210C252.274 208.879 253.148 204.271 252.994 200.112C252.686 191.85 252.742 183.548 251.901 175.339C250.909 165.647 248.005 156.458 242.194 148.389C238.337 143.034 234.359 141.596 228.02 143.723C212.619 148.889 196.972 153.019 180.944 155.792C173.892 157.011 168.664 160.741 166.742 168.321C164.028 179.02 164.326 199.48 161 210C154.5 210 144 210 135.085 210C134.047 209.279 135.061 204.569 135.085 203.297C135.379 188.234 128.508 175.529 121.989 162.694C121.843 162.407 121.698 162.12 121.548 161.835C115.416 165.596 109.289 169.357 103.16 173.113C100.165 174.948 97.7183 175.225 94.2965 172.917C83.2631 165.476 71.311 159.328 60.6608 151.407C50.6488 143.961 41.5659 134.899 36.9682 122.927C34.5243 116.563 34.1939 109.388 32.9299 102.688C27.9503 101.506 22.1835 100.229 16.4685 98.7521C10.7973 97.2864 8.10601 92.7812 5.99372 87.8493C4.16266 83.5741 2.46499 79.2417 0.35418 74.8293C-2.02656e-06 71.031 -2e-06 67.3382 0 63.1846Z" fill="#080403"/>
</svg>
