<svg width="328" height="192" viewBox="0 0 328 192" fill="none" xmlns="http://www.w3.org/2000/svg">
<path d="M216.164 13.9252C228.155 16.2634 240.078 17.4506 251.08 21.2821C260.937 24.715 270.731 29.8775 278.845 36.4005C290.58 45.8335 302.684 54.628 314.938 63.3187C319.27 66.3915 322.668 70.9509 326 75.2164C329.062 79.1363 327.354 82.5548 322.387 82.8747C318.206 83.144 313.993 82.9301 310.307 82.9301C310.952 91.364 312.612 100.595 312.104 109.704C311.512 120.315 309.688 130.982 307.167 141.324C304.71 151.401 301.052 161.24 297.22 170.904C295.231 175.92 295.654 188.276 291.803 191.852C287.803 191.852 258.803 191.852 248.803 191.852C247.803 188.852 246.303 185.852 245.489 183.486C243.911 181.476 242.649 179.195 241.416 176.943C240.305 174.913 239.432 172.754 238.558 170.874C214.6 179.64 191.5 181.702 167.485 170.791C166.51 172.506 164.963 174.377 164.314 176.52C161.904 184.485 168.06 190.13 160.803 191.852C152.303 191.852 124.803 191.852 114.803 191.852C106.378 189.27 111.676 178.794 108.387 171.843C107.912 170.838 107.702 169.711 107.314 168.661C107.214 168.39 106.904 168.196 106.906 168.197C98.6349 170.63 90.5372 173.114 82.3733 175.358C79.4179 176.17 76.3212 176.611 73.2593 176.868C59.0669 178.059 44.8107 178.829 31.151 173.798C20.0683 169.716 11.3285 162.118 6.75731 151.344C-0.116587 135.143 -0.776133 117.988 3.42766 100.951C7.71569 83.5726 20.2261 75.1173 37.068 71.8723C40.5161 71.2079 43.9919 70.2418 47.1676 68.7873C48.8749 68.0053 50.8479 66.0736 51.2073 64.3493C54.3693 49.1773 62.1085 37.4048 76.293 30.7052C81.1509 28.4107 86.6966 27.5723 91.3154 26.2447C91.3154 20.7364 90.3533 14.69 91.5859 9.13026C92.8202 3.56319 98.7338 0.297958 102.907 0.929899C108.344 1.75328 113.199 7.22611 113.265 13.3761C113.311 17.6975 112.531 22.0277 112.146 26.0739C117.215 27.1354 122.793 28.6737 128.472 29.3079C130.69 29.5556 133.228 27.9626 135.461 26.88C149.683 19.9853 164.631 15.9326 180.42 14.8854C187.935 14.387 195.42 13.3473 202.939 13.0172C207.169 12.8314 211.441 13.5913 216.164 13.9252Z" fill="#080403"/>
</svg>
