<svg width="150" height="229" viewBox="0 0 150 229" fill="none" xmlns="http://www.w3.org/2000/svg">
<path d="M7.5578 1.65266e-08C16.8977 2.34325 25.811 4.62291 34.6815 7.05843C38.6963 8.16078 42.6198 10.5679 46.5962 10.5933C51.6071 10.6254 56.6472 8.90627 61.6438 7.80225C72.152 5.48039 83.4539 7.20196 89.9543 16.5448C94.4968 23.0737 94.9942 30.805 93.8217 38.1912C92.2354 48.1844 93.8048 57.4174 96.8788 66.8595C100.988 79.4809 104.238 92.3801 108.03 105.108C108.74 107.489 109.962 109.858 111.465 111.84C123.395 127.578 135.497 143.186 147.398 158.946C148.613 160.554 148.86 162.894 149.556 164.894C147.212 165.202 144.528 166.409 142.582 165.67C130.971 161.267 119.529 156.415 107.955 151.683C106.994 154.991 105.148 159.578 104.403 164.337C103.333 171.172 101.777 178.349 105.106 184.889C107.362 189.32 110.89 193.093 113.72 197.249C114.968 199.082 116.512 201.087 116.67 203.111C116.736 203.952 113.566 205.81 111.805 205.894C105.011 206.219 98.1915 205.985 91.3818 206.018C86.9627 206.039 85.8099 207.814 87.4343 211.893C87.8473 212.93 88.1956 213.992 88.5782 215.042C92.0014 224.43 89.52 227.706 79.8326 227.896C61.6811 228.252 43.5174 228.047 25.3594 227.955C22.2767 227.939 19.0962 227.673 16.162 226.826C14.8554 226.449 13.4163 224.462 13.1397 222.998C12.4792 219.5 13.6638 215.791 17.2752 215.112C24.6985 213.717 32.3676 212.177 39.8064 212.665C47.0948 213.143 48.7784 211.938 49.5 207.5C48.5 205 38.7663 199.703 31.3984 190.599C27.3044 185.541 24.0571 179.597 21.4247 173.613C18.9348 167.953 17.0783 161.824 16.1307 155.718C14.3104 143.987 12.9678 132.152 12.1226 120.31C11.5074 111.692 11.3553 102.933 12.1487 94.3433C13.8129 76.3293 18.274 59.2294 32.2665 46.2849C34.6846 44.0479 37.3746 42.1063 39.9214 40.007C47.988 33.3579 45.7266 29.4309 38.9905 25.6392C27.327 19.0738 15.2676 13.213 3.57391 6.69837C1.82617 5.72469 1.16299 2.8042 0 0.392164C2.37253 -2.98023e-06 4.74307 -2.98347e-06 7.5578 1.65266e-08Z" fill="#080404"/>
</svg>
