<svg width="213" height="228" viewBox="0 0 213 228" fill="none" xmlns="http://www.w3.org/2000/svg">
<path d="M213 200.664C206.605 203.663 200.438 201.18 194.441 199.723C185.151 197.465 176.062 194.38 169.069 187.182C168.317 186.408 166.629 186.083 165.469 186.239C156.653 187.427 147.896 189.197 139.049 189.938C134.947 192.361 131.704 209.361 134.947 213.096C138.24 215.096 141.673 216.973 144.585 219.446C145.943 220.6 146.674 223.022 146.732 224.899C146.753 225.587 144.015 226.988 142.528 227C123.871 227.145 105.213 227.166 86.5571 226.961C85.0303 226.944 82.6933 225.35 82.1747 223.953C80.9515 220.66 83.977 219.811 86.2881 219.147C95.045 216.629 103.951 214.582 112.586 211.712C119.204 199.723 115.228 187.618 105.353 184.081C92.29 179.402 81.7097 170.774 73.6588 159.899C65.8677 149.375 64.6816 136.891 66.8258 123.771C69.828 105.4 77.1654 88.7722 85.3087 72.35C85.6521 71.6576 86.3268 71.1295 86.0814 71.4148C75.4591 73.5279 64.1171 76.5477 52.582 77.8247C44.146 78.7586 35.3923 77.9285 26.9 76.8974C20.1105 76.0732 13.4927 73.7966 6.81505 72.0997C0.746322 70.5575 -1.26381 66.405 2.89683 61.9455C8.86607 55.5476 15.4165 49.4858 22.5215 44.4021C33.102 36.8317 44.3443 30.1784 55.3889 23.2688C58.7701 21.1534 62.3373 19.2779 65.9801 17.6531C70.0705 15.8286 72.868 13.236 75.277 9.23721C77.0222 6.34 81.1581 4.42892 84.6213 3.11337C92.2296 0.223235 100.227 -0.309664 107.735 3.24649C110.296 4.4592 113.076 7.35495 113.77 10.0024C117.358 23.68 117.836 37.3476 114.546 51.4453C111.098 66.2235 109.242 81.3937 107.165 96.4581C106.625 100.377 107.855 104.54 108.187 107.764C122.248 111.388 136.141 114.672 149.845 118.616C157.77 120.897 165.592 123.797 173.097 127.217C184.112 132.236 188.847 142.004 192.171 153.188C196.605 168.109 201.584 182.973 212.662 195.017C213 196.807 213 198.521 213 200.664Z" fill="#080404"/>
</svg>
