<svg width="245" height="231" viewBox="0 0 245 231" fill="none" xmlns="http://www.w3.org/2000/svg">
<path d="M71.4596 8.18544C68.0621 12.1032 64.8367 15.6565 61.8743 18.9203C63.0203 24.056 65.0466 29.8883 65.4581 35.8324C65.9329 42.6905 64.4988 49.6685 64.7991 56.5549C65.0568 62.4662 66.1209 68.4508 67.6924 74.1654C69.2369 79.7819 73.6096 83.02 79.4899 83.6239C86.6895 84.3635 92.0765 81.3032 95.6999 75.1281C101.043 66.023 106.017 56.684 111.728 47.8181C116.536 40.3533 123.394 34.8224 132.473 33.8282C138.319 33.1881 143.574 35.9931 148.306 39.7034C152.84 43.2585 157.779 46.297 162.54 49.5625C161.615 50.4311 160.69 51.2997 159.764 52.1683C162.821 48.7302 165.746 45.1641 168.958 41.8775C179.175 31.4213 189.377 32.2415 199.48 41.1816C210.537 50.965 218.151 63.3587 224.847 76.5898C233.504 93.6951 238.5 111.904 242.148 130.373C244.047 139.988 246.643 150.241 243.523 160.221C239.454 161.898 237.984 159.211 236.658 156.613C233.71 150.838 230.898 144.994 227.644 138.394C227.644 145.114 228.177 151.084 227.538 156.926C225.968 171.301 227.644 193 227.644 202.5C227.644 204.652 230.332 228.46 227.644 230.5C224.644 230.5 210.523 230.5 205.523 230.5C205.443 221.395 205.631 203.632 205.633 194.524C205.635 184.227 203.499 174.24 199.546 164.772C196.348 157.112 191.774 150.139 182.866 148.579C178.986 147.9 174.746 149.18 170.681 149.671C162.768 150.627 154.864 151.657 146.955 152.653C136.131 154.017 132.044 158.29 131.689 169.454C131.229 183.939 138.098 219.155 126.683 230.5C124.183 230.5 104.158 230.5 100.389 230.5C100.715 224.989 102.217 214.447 103.149 209C105.258 196.67 109.869 184.191 106.511 172.217C105.431 168.364 104.273 164.532 103.149 160.69C98.9247 146.246 93.9791 146.466 82.1676 145.841C69.8114 145.187 58.1173 142.797 47.483 136.581C35.0051 129.288 28.0448 117.728 23.5739 104.267C20.1224 93.8743 20.1662 83.2258 20.8271 72.6338C21.2542 65.7884 23.2897 59.0283 24.7958 52.2726C25.4238 49.4561 26.5492 46.7505 27.1501 44.9088C20.6443 43.365 14.1084 42.2976 7.9262 40.1918C3.09814 38.5471 0.621884 34.2801 0.683163 29.0679C0.749813 23.4058 3.19189 18.5293 8.16455 16.0023C12.6639 13.716 17.7702 12.5425 22.696 11.1975C28.8627 9.51381 35.0543 7.65785 41.3599 6.84816C45.0378 6.37593 48.9596 7.80306 53.0403 8.41597C55.7483 4.16792 59.5541 0.829728 65.2143 0.499955C67.5232 0.365433 69.8572 0.660843 72.1797 0.760636C71.9971 3.11415 71.8145 5.46761 71.4596 8.18544Z" fill="#080404"/>
</svg>
