<svg width="321" height="229" viewBox="0 0 321 229" fill="none" xmlns="http://www.w3.org/2000/svg">
<path d="M321 96.134C317.346 102.036 313.327 106.963 307.254 110.088C304.696 111.405 304.054 113.953 304.708 117.561C306.553 127.741 306.603 138.051 304.116 148.293C302.217 156.11 301.373 164.207 299.153 171.918C293.948 189.993 296.842 228.714 278.026 228.714C272.026 228.714 261.526 228.714 255.526 228.714C251.171 224.445 254.669 228.58 251.171 220.127C250.504 218.514 249.871 216.848 248.929 215.397C245.628 210.31 242.578 209.179 236.72 211.344C218.82 217.956 200.173 216.98 181.695 216.356C175.162 216.135 168.665 213.249 162.262 211.227C156.084 209.275 158.122 209.382 154.026 216.356C151.475 220.698 153.337 225.283 149.792 228.714C141.526 228.714 125.026 228.714 121.026 228.714C116.344 222.78 118.082 216.704 115.292 209.829C109.559 195.704 99.4056 189.347 84.9025 186.297C70.3877 183.245 56.0287 178.602 42.2907 172.974C31.1173 168.396 20.7927 161.605 10.4719 155.184C7.76429 153.5 5.4828 149.781 4.71571 146.587C2.64857 137.977 1.17665 129.186 0.117686 120.388C-0.497427 115.279 1.98707 113.539 6.94386 112.512C17.2485 110.375 27.364 107.656 32.7949 97.15C35.7255 91.4806 38.5379 85.7301 41.8207 80.2669C49.3532 67.7314 60.0952 58.5854 73.3566 52.6848C79.2985 50.041 85.8176 48.6946 92.2611 46.7019C91.0033 32.2632 93.0056 17.9146 102.651 5.41629C107.263 -0.559994 110.936 -1.29112 115.606 3.99997C123.044 12.4292 129.25 21.765 127.853 33.7346C127.261 38.807 125.049 43.6903 123.796 47.9107C130.218 51.3183 137.625 55.347 145.148 59.146C146.453 59.805 148.41 59.9947 149.792 59.55C161.629 55.7416 173.487 52.2152 186.037 51.5371C192.221 51.203 198.363 49.8521 204.54 49.7151C211.278 49.5657 218.141 49.6575 224.758 50.7764C235.205 52.5428 245.539 55.0656 255.836 57.6095C270.82 61.3113 282.273 70.1341 291.043 82.6807C292.506 84.7745 294.145 86.8023 295.987 88.5624C299.074 91.5114 302.37 91.2636 305.545 88.5276C308.827 85.6986 308.682 82.592 306.932 78.8513C306.193 77.2728 306.962 74.9892 307.045 73.0261C309.545 73.229 312.656 72.583 314.397 73.8376C316.894 75.6359 318.39 78.8217 320.657 81.5076C321 86.2893 321 90.9786 321 96.134Z" fill="#080403"/>
</svg>
