<svg width="268" height="232" viewBox="0 0 268 232" fill="none" xmlns="http://www.w3.org/2000/svg">
<path d="M92.1793 230.911C58.6349 202.761 58.1219 170.106 54.5474 124.676C49.7988 123.582 44.8046 122.611 39.9132 121.267C28.2757 118.069 19.7011 111.068 13.7152 100.513C12.1 97.6649 9.22057 94.8589 6.25643 93.6019C1.25606 91.4813 -0.00752151 87.8816 0.999987 83.4928C1.90871 79.5343 5.43498 78.5617 9.21181 79.4138C10.4776 73.7946 11.4522 68.4245 12.9279 63.1958C14.5611 57.4094 18.8429 53.4502 23.6702 50.3416C27.6579 47.7736 28.4969 44.555 27.3908 40.3552C25.3726 32.692 27.2132 30.1899 34.4346 28.0439C37.5022 27.1323 40.8661 24.575 42.4664 21.8195C49.9968 8.85334 60.2815 -0.12969 75.7896 0.50001C87.3657 0.970042 97.603 6.42463 105.785 14.7926C113.692 22.8792 120.945 31.6073 128.888 39.6553C141.988 52.9279 157.362 62.579 176.133 65.0971C187.336 66.5998 198.761 66.3724 210.054 67.2999C226.127 68.6198 241.27 72.3698 252.919 84.7897C260.82 93.2145 264.651 103.536 266.707 114.509C267.818 120.441 267.63 126.635 267.818 132.717C268.262 147.028 265.31 160.956 260.59 174.202C255.285 189.089 253.064 203.717 246.179 217.969C243.834 222.824 242.885 226.68 239.179 231.257C231.743 231.597 217.963 231.257 210.054 230.911C205.497 228.116 203.26 223.871 202.926 219.946C202.019 209.283 201.584 198.58 200.82 187.904C200.493 183.334 197.007 177.192 190.855 178.281C187.529 178.869 184.25 179.766 180.909 180.221C170.446 181.644 159.958 182.876 149.492 184.279C143.655 185.062 138.561 190.257 137.862 196.146C137.094 202.623 136.972 209.214 135.699 215.581C134.634 220.906 136.461 227.305 130.841 231.257C126.152 231.257 97.3346 230.911 92.1793 230.911Z" fill="#080403"/>
</svg>
