<svg width="177" height="231" viewBox="0 0 177 231" fill="none" xmlns="http://www.w3.org/2000/svg">
<path d="M47.8488 230.9C45.0336 226.294 45.877 221.068 49.0516 218.185C52.6459 214.921 58.6615 213.135 63.3174 216.682C65.5192 218.359 66.1978 216.463 68.3488 218.185C71.0928 215.815 73.5684 209.682 73.5684 197.211C63.0603 193.831 56.5762 185.914 51.4345 176.406C48.0027 170.06 41.5769 167.353 35.2531 164.957C20.4799 159.358 9.35499 149.299 4.32886 134.702C-2.11523 115.986 -1.85803 97.0328 10.2389 79.8716C11.7341 77.7504 13.658 75.936 15.2305 73.8636C17.9273 70.3098 20.5035 66.6645 22.4584 63.9803C19.4193 59.9105 16.2539 57.0455 14.9673 53.499C13.9977 50.8263 15.4343 47.2806 15.9443 42.8765C15.6737 42.6698 14.3325 41.6352 12.9802 40.6152C9.59974 38.0653 9.74097 35.5275 13.4728 33.5913C15.3051 32.6407 17.3569 31.051 19.1355 31.2563C24.7156 31.9006 27.4041 28.8308 29.3573 24.0317C25.5903 20.5193 21.7614 16.6907 22.582 10.1404C23.1447 5.64984 25.0686 2.35388 28.8265 0.499941C30.2509 -0.202757 33.3535 0.320193 34.4325 1.4679C39.3292 6.67658 41.5816 7.53552 47.2057 3.59491C50.9534 0.968997 54.4347 1.28638 57.5891 3.46204C60.817 5.68848 61.3533 9.15369 60.2015 13.1579C59.7566 14.7043 61.2921 16.8555 62.0172 18.695C63.0808 21.394 65.7255 24.652 64.96 26.5921C63.9932 29.0426 60.2755 30.4078 57.7217 32.2579C57.7217 36.3538 57.6565 41.3881 57.7358 46.4199C57.8833 55.7592 63.2814 60.1246 72.1837 57.6305C91.5894 52.1938 110.043 55.7573 128.178 62.9976C130.705 64.0065 133.328 64.9472 135.595 66.404C142.115 70.5931 148.451 68.7562 154.309 65.5118C158.371 63.262 161.902 59.9078 165.325 56.6813C171.159 51.1821 172.691 51.3672 176.349 58.8023C176.698 66.5876 176.698 74.2753 176.33 82.564C173.806 88.9768 172.213 95.0833 169.355 100.526C165.714 107.461 160.767 113.698 156.909 120.534C153.158 127.181 150.71 134.623 146.542 140.962C140.6 149.998 132.733 157.287 122.901 162.326C113.875 166.951 106.212 172.87 101.298 182.394C97.5462 189.667 98.0037 194.805 89.8441 197.211C89.8441 203.396 89.8441 213.182 89.8441 216.682C98.4474 217.141 107 224.86 106.849 230.9C102.849 230.9 95.8488 230.9 92.1044 230.9C91.0809 230.9 90.7914 228.512 89.8441 227.271C86.1187 222.393 85.188 222.342 81.4779 227.519C80.6299 228.702 79.629 229.776 78.6985 230.9C75.3372 230.9 72.3488 230.9 68.3488 230.9C66.4081 229.528 64.8347 227.962 63.3174 227.165C58.6025 224.687 56.4546 225.738 54.8488 230.9C52.8071 230.9 50.3279 230.9 47.8488 230.9Z" fill="#080404"/>
</svg>
