<svg width="244" height="230" viewBox="0 0 244 230" fill="none" xmlns="http://www.w3.org/2000/svg">
<path d="M58.6774 0C61.5592 7.42481 62.1976 14.9373 59.0897 22.2603C56.3519 28.7108 53.1019 34.9439 49.878 41.6918C57.0466 46.6869 61.5452 54.8601 65.4621 63.63C71.1137 76.284 81.8359 82.9139 94.811 85.8919C103.148 87.8054 111.841 88.1785 120.168 90.1254C129.116 92.2172 137.49 96.2521 144.017 102.843C154.484 113.413 158.783 126.719 160.218 141.337C161.374 153.104 162.796 164.923 165.299 176.459C167.933 188.598 174.485 196.719 188.409 198.048C202.294 199.373 213.083 194.422 221.103 183.138C228.371 172.913 231.625 161.29 233.16 149.023C233.537 146.004 234.247 142.98 235.227 140.103C235.644 138.879 237.009 137.54 238.213 137.194C238.877 137.003 240.352 138.61 241.005 139.684C241.735 140.883 241.948 142.397 242.75 143.887C243.115 155.021 243.115 166.042 243.115 177.531C241.106 183.806 239.4 189.739 237.033 195.395C229.775 212.737 216.694 223.236 198.337 226.966C182.035 230.279 166.083 228.835 150.857 221.979C137.55 215.988 126.943 206.979 120.829 193.342C119.469 190.307 118.007 187.317 116.432 183.965C107.721 186.797 104.239 209.467 106.104 217.897C107.643 224.855 104.943 228.815 97.8559 228.917C79.6971 229.178 61.5319 229.028 43.3696 228.96C41.8028 228.954 40.028 228.69 38.7247 227.915C36.9957 226.888 34.363 225.201 34.4031 223.866C34.4704 221.632 35.8201 218.248 37.5622 217.49C41.7551 215.666 46.4652 214.3 51.0079 214.168C59.5631 213.919 68.1535 214.562 76.7174 215.044C82.2182 215.353 85.0285 213.312 85.0811 208.064C85.1861 197.583 85.1123 187.099 85.1123 176.404C57.621 172.802 42.5684 155.936 35.6701 129.842C33.4435 134.833 31.0286 139.063 32.794 144.538C33.2128 145.837 30.7597 149.397 29.2314 149.666C27.1096 150.039 23.3666 148.965 22.4816 147.335C17.0562 137.344 22.8566 114.172 31.1113 107.795C31.1113 99.6465 31.1158 92.249 31.1101 84.8515C31.1046 77.6451 29.4017 76.3799 22.0749 75.8798C16.6675 75.5108 11.2161 74.4276 6.00446 72.9081C0.0757518 71.1795 -1.87823 63.411 2.03144 58.6646C3.08442 57.3864 4.14021 55.7978 5.55585 55.1829C13.3577 51.7942 19.0482 45.9543 24.9765 40.1131C27.2106 37.9119 31.8693 38.1716 35.0023 37.4114C36.6741 30.1447 37.7388 22.3988 40.3361 15.2063C42.4465 9.36214 46.0031 3.86143 52.0288 0.340372C54.1566 -2.98023e-08 56.1983 0 58.6774 0Z" fill="#080404"/>
</svg>
