<svg width="328" height="159" viewBox="0 0 328 159" fill="none" xmlns="http://www.w3.org/2000/svg">
<path d="M79.8051 50.7929C82.3531 36.8288 87.2353 24.1389 96.8394 14.2103C105.362 5.39996 116.555 1.01385 128.93 0.181759C142.974 -0.762394 156.35 2.09845 169.869 5.82916C177.114 7.82831 185.516 7.10284 193.14 5.93383C206.639 3.86383 219.95 2.7912 233.666 3.89502C243.693 4.7019 253.189 6.83453 262.409 10.2801C270.948 13.4715 284.263 16.1704 290.737 23C296.822 29.4195 303.173 36.0707 308.5 43.0158C317.824 55.1722 319.82 69.2147 323.37 84.3938C324.947 91.14 327.847 97.4662 327.134 104.663C326.828 107.751 326.505 110.767 322.87 111.085C318.581 111.459 313.636 109.112 313.5 106C313.41 103.953 307.529 71.7157 306.069 72.3074C306.069 74.7068 306.318 77.1367 306.028 79.5007C304.387 92.9059 303.377 106.453 300.646 119.64C298.517 129.922 294.517 139.874 290.737 149.739C288.012 156.848 289.993 157.976 282.5 159C275 159 261.5 159 253.5 159C251.36 157.739 248.223 153.038 247.309 150.606C243.566 140.645 239.91 137.022 228.301 138.848C217.904 140.483 207.037 139.429 196.395 139.066C191.225 138.89 187.145 140.886 185.022 145.567C183.143 149.712 184.708 156.455 180 159C171 159 153.5 159 144.5 159C138.267 157.702 141.42 154.276 139.198 149.094C136.243 142.204 134.06 134.982 131.517 127.824C127.917 128.25 123.995 128.888 120.049 129.141C112.806 129.607 105.543 130.204 98.2967 130.116C73.2464 129.812 49.83 123.414 30.242 107.522C16.7455 96.5726 6.24294 82.7847 3.0002 64.85C1.96572 59.1288 0.983481 53.3964 0.106345 47.6495C-0.284341 45.0894 0.300375 43.6537 3.56881 43.0158C12.9957 41.1761 12.8918 40.9319 17.173 49.5859C22.8056 60.9715 29.4588 71.6295 41.6725 76.9742C50.1622 80.6893 59.1651 82.3991 67.5714 76.8724C74.4335 72.3608 75.7251 64.399 78.0454 57.2187C78.6852 55.2389 79.0835 53.1813 79.8051 50.7929Z" fill="#080403"/>
</svg>
