<svg width="205" height="227" viewBox="0 0 205 227" fill="none" xmlns="http://www.w3.org/2000/svg">
<path d="M137.185 226.331C120.36 226.331 104.033 226.173 87.7132 226.437C83.4386 226.506 81.0022 224.866 80.293 221.076C79.5404 217.055 81.7754 214.011 85.3108 212.434C87.5525 211.434 90 211 90.5 209.5C89.5 205.5 87.0186 204.052 84.5 205C80.5 208.5 70.4525 220.297 65.6039 226.191C62.6933 226.191 59.3243 226.331 55.5 226.191C50.5 226.191 50.0753 222.231 50.5 221.076C53.7587 212.214 65.5145 203.563 65.6039 194.168C65.6506 189.249 63.9012 184.276 62.6933 179.394C61.7363 175.526 59.8684 171.829 59.3243 167.928C58.7787 164.017 57.2532 162.119 53.3688 161.266C35.7412 157.394 20.0853 149.646 8.2495 135.743C-3.54438 121.89 -3.3387 102.278 13.076 90.8669C26.2214 81.7287 40.7006 77.1275 56.7081 77.322C59.0157 77.3501 61.324 77.3259 62.7814 77.3259C64.6245 68.0701 65.7516 59.0366 68.2773 50.4127C73.9371 31.0887 85.1049 15.4592 101.948 4.16542C104.282 2.60036 106.966 1.36262 109.664 0.572952C117.094 -1.60179 121.659 2.47401 122.158 11.7854C123.09 29.1733 118.521 45.3298 109.03 59.6582C102.624 69.3301 94.5082 77.8703 86.8129 87.3403C94.1674 94.1142 100.235 102.9 99.0961 115.322C104.729 115.322 110.015 115.23 115.297 115.337C138.434 115.807 157.783 124.645 172.011 142.915C179.736 152.834 184.286 164.558 184.13 177.495C184.04 184.981 183.388 192.46 182.969 200.327C185.488 200.327 188.626 200.321 191.764 200.329C197.286 200.343 203.204 204.31 204.178 208.641C205.515 214.59 203.07 220.527 197.088 222.759C191.89 224.698 186.183 226.012 180.656 226.191C166.346 226.653 152.01 226.337 137.185 226.331Z" fill="#080403"/>
</svg>
