<svg width="324" height="199" viewBox="0 0 324 199" fill="none" xmlns="http://www.w3.org/2000/svg">
<path d="M3.34795e-09 78.1907C3.4007 76.0518 6.66909 73.992 10.226 72.7761C22.795 68.4795 32.6033 60.2958 41.8783 51.2049C48.4126 44.8003 53.8863 37.1828 62.3396 32.9242C63.4621 32.3587 64.6072 31.5361 65.7901 31.4424C72.6531 30.8989 74.1428 26.0927 75.0252 20.4877C75.8246 15.4094 76.7203 10.3126 78.1175 5.37804C78.707 3.29623 80.4044 0.513571 82.1259 0.0622809C83.7336 -0.359197 86.544 1.43897 87.9548 3.03125C95.2558 11.2718 99.2498 21.1998 102.112 31.7182C102.756 34.0861 104.25 36.7101 106.156 38.1564C112.015 42.6009 116.042 48.2443 119.023 54.8338C123.695 65.1642 132.028 69.7057 143.097 69.7149C163.924 69.7322 184.756 69.4481 205.576 69.812C219.235 70.0506 232.477 72.771 244.558 79.6667C245.11 79.9819 245.73 80.1843 246.262 80.5265C246.675 80.7919 247 81.1935 247.362 81.5373C263.188 68.7024 288.034 69.5066 303.472 83.8524C310.023 89.9399 313.381 97.9925 314.987 106.707C315.84 111.336 316.278 116.039 317.021 120.689C317.572 124.142 318.822 127.06 322.251 128.934C323.336 129.527 323.989 132.038 323.757 133.499C323.612 134.408 321.466 135.575 320.17 135.638C305.144 136.366 296.505 130.937 290.258 117.444C284.055 104.045 277.054 108.562 273.554 109.562C270.054 110.562 268.247 113.402 266.797 125.006C265.528 135.151 263.271 145.342 260.005 155.025C256.141 166.478 256.796 187.112 251.5 198C246.262 198 233.5 198 227 198C224.067 187.33 221.612 165.863 219.02 155.102C217.098 147.129 213.505 144.672 206.134 147.845C189.633 154.949 172.334 156.761 154.66 156.736C149.367 156.729 145.661 159.489 144.108 164.27C141.432 172.51 144.108 198 140 198C133 198 121 199.5 115 198C111.933 189.936 113.988 173.958 110.996 165.866C106.358 153.317 102.136 140.589 96.8841 128.301C93.5341 120.464 85.5988 118.138 77.8979 117.887C62.0863 117.371 46.2448 117.606 30.4181 117.77C17.0671 117.909 7.99226 109.172 3.03273 98.7274C2.14157 96.8506 1.47835 94.8656 0.354942 92.8276C-9.23872e-07 88.0353 -9.96652e-07 83.346 3.34795e-09 78.1907Z" fill="#080403"/>
</svg>
